<svg width="1em" height="1em" viewBox="0 0 24 24" fill="none" xmlns="http://www.w3.org/2000/svg" data-icon="EfficiencyOutlined"><path d="M3.113 11.357a7.065 7.065 0 0 0 4.807 6.116.17.17 0 0 1 .107.107l.554 1.663a1.84 1.84 0 0 0 1.744 1.257h3.35c.791 0 1.494-.506 1.744-1.257l.554-1.663a.17.17 0 0 1 .107-.107 7.065 7.065 0 0 0 4.807-6.116L21 10a9 9 0 1 0-18 0l.113 1.357Zm10.963 5.59-.518 1.553h-3.117l-.517-1.552a2.17 2.17 0 0 0-1.372-1.372 5.065 5.065 0 0 1-3.446-4.385L5 9.921a7 7 0 0 1 14 0l-.106 1.27a5.065 5.065 0 0 1-3.446 4.385 2.17 2.17 0 0 0-1.372 1.372ZM10 21.5a1 1 0 1 0 0 2h4a1 1 0 1 0 0-2h-4Z" fill="currentColor"></path></svg>