<svg width="24" height="24" viewBox="0 0 24 24" fill="none" class="explorer__button-template-icon"
    style="width: 14px; height: 14px;">
    <path d="M14 13.5a6.5 6.5 0 11-13 0 6.5 6.5 0 0113 0z" fill="#5B65F5"></path>
    <path
        d="M10.65 2.85a2 2 0 012.45-1.42l7.7 2.07a2 2 0 011.42 2.45l-2.07 7.7a2 2 0 01-2.45 1.41L10 13a2 2 0 01-1.41-2.45l2.06-7.7z"
        fill="#FCCA03"></path>
    <path d="M13.89 10.3a1 1 0 011.73 0l5.77 10a1 1 0 01-.87 1.5H9a1 1 0 01-.87-1.5l5.77-10z" fill="#F54A45"></path>
</svg>