<svg width="1em" height="1em" viewBox="0 0 24 24" fill="none" xmlns="http://www.w3.org/2000/svg" data-icon="WikilinkOutlined"><path d="M13 7.855A3.502 3.502 0 0 0 12 1a3.5 3.5 0 0 0-1 6.855v2.271a4.002 4.002 0 0 0-2.82 5.063l-1.7 1.425a3.5 3.5 0 1 0 1.258 1.555l1.51-1.266A3.987 3.987 0 0 0 12 18a3.987 3.987 0 0 0 2.752-1.097l1.51 1.267a3.5 3.5 0 1 0 1.258-1.555l-1.7-1.427A4.002 4.002 0 0 0 13 10.125v-2.27ZM12 6a1.5 1.5 0 1 1 0-3 1.5 1.5 0 0 1 0 3Zm0 10a2 2 0 1 1 0-4 2 2 0 0 1 0 4Zm-6 3.5a1.5 1.5 0 1 1-3 0 1.5 1.5 0 0 1 3 0ZM19.5 21a1.5 1.5 0 1 1 0-3 1.5 1.5 0 0 1 0 3Z" fill="currentColor"></path></svg>